<?xml version="1.0" standalone="no"?>
<!DOCTYPE svg PUBLIC "-//W3C//DTD SVG 20010904//EN"
 "http://www.w3.org/TR/2001/REC-SVG-20010904/DTD/svg10.dtd">
<svg version="1.0" xmlns="http://www.w3.org/2000/svg"
 width="369.000000pt" height="369.000000pt" viewBox="0 0 369.000000 369.000000"
 preserveAspectRatio="xMidYMid meet">
<metadata>
Created by potrace 1.13, written by Peter Selinger 2001-2015
</metadata>
<g transform="translate(0.000000,369.000000) scale(0.100000,-0.100000)"
fill="#99cccc" stroke="none">
<path d="M230 3115 c0 -8 35 -61 78 -119 l77 -105 138 0 137 -1 0 -403 c0
-443 3 -468 62 -579 37 -70 159 -190 272 -267 176 -121 337 -154 501 -104 57
18 166 75 185 98 7 8 19 15 27 15 14 0 14 -64 -2 -682 l-6 -198 58 -37 c32
-20 83 -56 114 -80 95 -74 87 -117 91 495 5 595 4 586 73 728 134 274 500 350
704 146 132 -132 158 -341 64 -514 -77 -142 -263 -221 -445 -190 -56 10 -73
10 -79 0 -5 -7 23 -56 69 -125 l77 -113 105 0 c164 0 288 44 384 138 254 246
210 642 -106 953 -159 156 -349 230 -517 199 -133 -24 -237 -82 -310 -173
l-34 -42 7 154 c3 85 6 250 6 368 l0 213 690 0 c661 0 690 1 690 18 0 10 -12
29 -26 43 -14 13 -51 59 -81 102 l-54 77 -1475 0 c-1287 0 -1474 -2 -1474 -15z
m1480 -681 l0 -455 -73 -73 c-256 -252 -625 -244 -702 16 -12 43 -15 128 -15
510 l0 458 395 0 395 0 0 -456z"/>
</g>
</svg>
